<?xml version="1.0" encoding="UTF-8" standalone="no"?>
<!DOCTYPE svg PUBLIC "-//W3C//DTD SVG 1.1//EN" "http://www.w3.org/Graphics/SVG/1.1/DTD/svg11.dtd">
<!-- Created with Vectornator (http://vectornator.io/) -->
<svg height="100%" stroke-miterlimit="10" style="fill-rule:nonzero;clip-rule:evenodd;stroke-linecap:round;stroke-linejoin:round;" version="1.1" viewBox="0 0 907.2 907.2" width="100%" xml:space="preserve" xmlns="http://www.w3.org/2000/svg" xmlns:vectornator="http://vectornator.io" xmlns:xlink="http://www.w3.org/1999/xlink">
<defs/>
<g id="Layer-1" vectornator:layerName="Layer 1">
<path d="M28.35 173.285C28.35 93.2398 93.2398 28.35 173.285 28.35L733.915 28.35C813.96 28.35 878.85 93.2398 878.85 173.285L878.85 733.915C878.85 813.96 813.96 878.85 733.915 878.85L173.285 878.85C93.2398 878.85 28.35 813.96 28.35 733.915L28.35 173.285Z" fill="#242629" fill-rule="nonzero" opacity="1" stroke="none" vectornator:layerName="Rectangle 1"/>
<path d="M177.477 657.78L177.477 612.663L224.352 612.663L224.352 286.296L177.477 286.296L177.477 240.885L277.086 240.885C284.313 240.885 289.586 241.96 292.907 244.108C296.227 246.257 299.547 250.944 302.868 258.171L439.098 568.425C447.496 587.175 452.282 598.112 453.454 601.237L467.809 569.01L603.454 258.757C606.579 251.53 609.948 246.745 613.561 244.401C617.174 242.057 622.594 240.885 629.821 240.885L729.43 240.885L729.43 286.296L682.555 286.296L682.555 612.663L729.43 612.663L729.43 657.78L585.289 657.78L585.289 612.663L632.164 612.663L632.164 330.241L631.579 288.639C629.625 293.522 626.647 300.456 622.643 309.44C618.639 318.425 616.246 323.893 615.465 325.846L477.477 641.081C474.352 648.307 471.08 652.897 467.663 654.85C464.245 656.803 458.727 657.78 451.11 657.78L447.301 657.78C438.903 657.78 433.141 656.364 430.016 653.532C426.891 650.7 423.082 644.303 418.59 634.342L268.59 292.448L268.59 612.663L315.465 612.663L315.465 657.78L177.477 657.78Z" fill="#7f5af0" opacity="1" stroke="#7f5af0" stroke-linecap="butt" stroke-linejoin="round" stroke-width="20" vectornator:layerName="Text 1"/>
</g>
</svg>
