<?xml version="1.0" encoding="UTF-8" standalone="no"?>
<!DOCTYPE svg PUBLIC "-//W3C//DTD SVG 1.1//EN" "http://www.w3.org/Graphics/SVG/1.1/DTD/svg11.dtd">
<!-- Created with Vectornator (http://vectornator.io/) -->
<svg height="100%" stroke-miterlimit="10" style="fill-rule:nonzero;clip-rule:evenodd;stroke-linecap:round;stroke-linejoin:round;" version="1.1" viewBox="0 0 306.142 116.371" width="100%" xml:space="preserve" xmlns="http://www.w3.org/2000/svg" xmlns:vectornator="http://vectornator.io" xmlns:xlink="http://www.w3.org/1999/xlink">
<defs/>
<clipPath id="ArtboardFrame">
<rect height="116.371" width="306.142" x="0" y="0"/>
</clipPath>
<g clip-path="url(#ArtboardFrame)" id="Untitled" vectornator:layerName="Untitled">
<g opacity="1" vectornator:layerName="Group 1">
<g opacity="1" vectornator:layerName="g">
<g opacity="1" vectornator:layerName="g">
<g opacity="1" vectornator:layerName="g">
<path d="M38.386 18.3L38.386 30.578C38.386 35.617 36.306 39.217 30.148 39.217C23.949 39.217 21.91 35.617 21.91 30.578L21.91 18.3L26.709 18.3L26.709 30.578C26.709 33.937 27.828 35.177 30.148 35.177C32.427 35.177 33.587 33.897 33.587 30.578L33.587 18.3L38.386 18.3Z" fill="#ffffff" fill-rule="nonzero" opacity="1" stroke="none" vectornator:layerName="path"/>
<path d="M51.427 21.74C56.066 21.74 57.505 25.3 57.505 29.259L57.505 38.778L52.706 38.778L52.706 29.259C52.706 26.779 51.907 25.9 50.227 25.9C48.547 25.9 47.266 26.9 47.266 29.18L47.266 38.778L42.467 38.778L42.467 22.18L46.027 22.18L46.547 23.98C47.628 22.62 49.227 21.74 51.427 21.74Z" fill="#ffffff" fill-rule="nonzero" opacity="1" stroke="none" vectornator:layerName="path"/>
<path d="M64.067 13.141L67.628 16.701L64.067 20.26L60.508 16.701L64.067 13.141ZM66.468 22.18L66.468 38.777L61.669 38.777L61.669 22.18L66.468 22.18Z" fill="#ffffff" fill-rule="nonzero" opacity="1" stroke="none" vectornator:layerName="path"/>
<path d="M86.345 22.18L80.866 38.777L74.507 38.777L69.028 22.18L73.987 22.18L77.706 34.098L81.386 22.18L86.345 22.18Z" fill="#ffffff" fill-rule="nonzero" opacity="1" stroke="none" vectornator:layerName="path"/>
<path d="M95.427 21.74C99.986 21.74 102.945 24.34 102.945 29.379C102.945 30.539 102.906 31.179 102.826 32.178L92.667 32.178C92.667 34.418 93.747 35.538 96.106 35.538C97.545 35.538 99.465 34.978 100.385 34.578L101.946 37.937C100.305 38.737 98.507 39.217 95.747 39.217C90.708 39.217 87.907 36.617 87.907 31.778L87.907 29.179C87.907 24.339 90.708 21.74 95.427 21.74ZM95.427 25.219C93.587 25.219 92.667 26.379 92.667 28.658L92.667 28.818L98.226 28.818L98.226 28.658C98.226 26.379 97.347 25.219 95.427 25.219Z" fill="#ffffff" fill-rule="nonzero" opacity="1" stroke="none" vectornator:layerName="path"/>
<path d="M115.665 21.86C116.267 21.86 116.905 21.94 117.585 22.1L116.786 26.739C116.345 26.659 115.866 26.579 115.186 26.579C113.305 26.579 111.225 27.619 111.225 31.218L111.225 38.777L106.426 38.777L106.426 22.18L109.987 22.18L110.786 24.86C111.827 22.899 113.507 21.86 115.665 21.86Z" fill="#ffffff" fill-rule="nonzero" opacity="1" stroke="none" vectornator:layerName="path"/>
<path d="M125.106 21.74C127.225 21.74 129.465 22.26 131.145 23.14L129.424 26.739C128.424 26.259 126.824 25.619 125.346 25.619C124.065 25.619 123.586 26.059 123.586 26.699C123.586 27.339 123.945 27.499 126.145 28.579C129.664 30.299 131.184 31.338 131.184 34.298C131.184 37.857 127.866 39.217 124.785 39.217C122.066 39.217 120.346 38.737 118.586 38.097L119.986 34.337C121.545 34.937 123.105 35.337 124.625 35.337C125.785 35.337 126.545 34.897 126.545 34.177C126.545 33.337 125.865 33.097 123.984 32.217C121.425 31.017 118.826 29.898 118.826 26.818C118.827 23.379 121.946 21.74 125.106 21.74Z" fill="#ffffff" fill-rule="nonzero" opacity="1" stroke="none" vectornator:layerName="path"/>
<path d="M136.987 13.141L140.546 16.701L136.987 20.26L133.426 16.701L136.987 13.141ZM139.386 22.18L139.386 38.777L134.587 38.777L134.587 22.18L139.386 22.18Z" fill="#ffffff" fill-rule="nonzero" opacity="1" stroke="none" vectornator:layerName="path"/>
<path d="M149.905 18.3L149.905 22.179L152.864 22.179L152.864 26.058L149.905 26.058L149.905 32.577C149.905 34.416 150.704 34.816 151.905 34.816C152.184 34.816 152.425 34.816 152.784 34.776L153.184 38.976C152.584 39.056 152.024 39.096 151.504 39.096C146.984 39.096 145.106 36.257 145.106 32.697L145.106 26.058L142.145 26.058L142.145 22.18L142.946 22.18C144.587 22.18 145.905 21.86 146.266 18.301L149.905 18.301L149.905 18.3Z" fill="#ffffff" fill-rule="nonzero" opacity="1" stroke="none" vectornator:layerName="path"/>
<path d="M162.704 21.74C167.265 21.74 170.224 24.34 170.224 29.379C170.224 30.539 170.185 31.179 170.105 32.178L159.947 32.178C159.947 34.418 161.025 35.538 163.386 35.538C164.825 35.538 166.745 34.978 167.665 34.578L169.224 37.937C167.585 38.737 165.785 39.217 163.025 39.217C157.986 39.217 155.187 36.617 155.187 31.778L155.187 29.179C155.186 24.339 157.985 21.74 162.704 21.74ZM164.905 12.981L167.104 16.42L160.825 20.18L158.905 17.22L164.905 12.981ZM162.704 25.219C160.866 25.219 159.946 26.379 159.946 28.658L159.946 28.818L165.505 28.818L165.505 28.658C165.505 26.379 164.624 25.219 162.704 25.219Z" fill="#ffffff" fill-rule="nonzero" opacity="1" stroke="none" vectornator:layerName="path"/>
</g>
<g opacity="1" vectornator:layerName="Group 1">
<path d="M103.874 72.505L103.874 96.261L101.835 96.261L101.315 94.501C100.315 95.86 98.754 96.7 96.754 96.7C92.475 96.7 90.836 93.661 90.836 90.302L90.836 85.702C90.836 82.022 92.795 79.304 96.994 79.304C98.074 79.304 99.033 79.544 99.873 79.865L99.475 81.865C98.754 81.705 98.114 81.584 97.354 81.584C94.956 81.584 93.475 82.863 93.475 85.703L93.475 90.303C93.475 93.143 94.955 94.383 97.155 94.383C99.755 94.383 101.235 92.582 101.235 89.742L101.235 72.505L103.874 72.505ZM115.354 79.304C119.914 79.304 121.874 82.183 121.874 85.863C121.874 87.383 121.833 88.302 121.755 89.142L111.476 89.142L111.476 90.302C111.476 93.142 112.755 94.382 115.755 94.382C116.995 94.382 118.515 93.902 120.075 93.261L121.073 95.462C119.634 96.101 117.995 96.7 115.755 96.7C110.597 96.7 108.837 93.981 108.837 90.302L108.837 85.863C108.837 82.183 110.796 79.304 115.354 79.304ZM115.354 81.545C112.955 81.545 111.475 82.943 111.475 85.863L111.475 86.863L119.235 86.863L119.235 85.863C119.235 82.943 117.755 81.545 115.354 81.545ZM253.034 79.744L253.034 96.262L250.993 96.262L250.473 94.502C249.473 95.861 247.914 96.701 245.914 96.701C241.635 96.701 239.994 93.662 239.994 90.303L239.994 79.744L242.635 79.744L242.635 90.303C242.635 93.143 244.114 94.383 246.315 94.383C248.915 94.383 250.393 92.582 250.393 89.742L250.393 79.744C250.393 79.744 253.034 79.744 253.034 79.744ZM265.595 79.304C266.794 79.304 267.794 79.624 268.435 79.945L267.355 82.263C266.634 81.943 265.915 81.784 265.195 81.784C262.996 81.784 261.117 83.384 261.117 86.622L261.117 96.261L258.476 96.261L258.476 79.744L260.515 79.744L261.117 81.785C262.114 80.224 263.636 79.304 265.595 79.304ZM276.311 79.304C278.27 79.304 279.789 80.144 280.749 81.464L281.271 79.743L283.31 79.743L283.31 96.501C283.31 100.421 281.83 103.78 276.511 103.78C275.232 103.78 273.751 103.499 272.152 102.979L272.992 100.739C274.031 101.1 275.271 101.421 276.512 101.421C279.832 101.421 280.672 99.501 280.672 96.501L280.672 86.263C280.672 83.423 279.192 81.624 276.711 81.624C274.393 81.624 272.912 82.862 272.912 85.702L272.912 90.302C272.912 93.142 274.392 94.421 276.592 94.421C277.432 94.421 278.111 94.181 278.631 93.941L279.551 95.701C278.631 96.342 277.471 96.701 276.233 96.701C271.913 96.701 270.274 93.662 270.274 90.303L270.274 85.703C270.272 82.343 272.192 79.304 276.311 79.304Z" fill="#2cb67d" fill-rule="nonzero" opacity="1" stroke="none" vectornator:layerName="path"/>
</g>
<path d="M306.142 57.485L260.505 57.485L260.505 0L239.528 0L238.11 0L213.45 0L212.032 0L202.677 0L201.261 0L190.134 0L190.134 0.001L0.001 0.001L0.001 58.887L37.378 58.887L37.378 116.428L57.73 116.428L59.148 116.428L69.919 116.428L69.919 116.369L306.142 116.369L306.142 57.485ZM259.104 1.4L259.104 57.484L239.528 57.484L239.528 1.4L259.104 1.4ZM238.11 1.4L238.11 57.484L213.45 57.484L213.45 1.4L238.11 1.4ZM212.032 1.4L212.032 57.484L202.677 57.484L202.677 1.4L212.032 1.4ZM191.534 1.4L201.261 1.4L201.261 57.484L191.534 57.484L191.534 1.4ZM1.401 1.401L190.094 1.401L190.094 57.484L68.487 57.484L1.401 57.487L1.401 1.401ZM38.778 115.028L38.778 58.944L57.729 58.944L57.729 115.028L38.778 115.028ZM59.147 58.944L68.487 58.944L68.487 115.028L59.147 115.028L59.147 58.944ZM304.741 114.969L69.919 114.969L69.919 58.887L304.741 58.885L304.741 114.969Z" fill="#ffffff" fill-rule="nonzero" opacity="1" stroke="none" vectornator:layerName="path"/>
</g>
</g>
</g>
<g opacity="1" vectornator:layerName="Group 2">
<path d="M138.733 75.5025C141.253 75.5025 142.772 76.5025 144.731 78.0615C146.292 79.3015 147.372 79.7415 148.85 79.7415C150.051 79.7415 151.25 79.3025 151.61 75.9425L153.569 75.9425L153.569 79.7415L156.93 79.7415L156.93 81.9815L153.569 81.9815L153.569 91.1805C153.569 93.4985 154.409 94.1785 155.85 94.1785C156.129 94.1785 156.569 94.1395 156.889 94.0985L157.129 96.4575C156.77 96.4985 156.168 96.5375 155.729 96.5375C152.09 96.5375 150.93 94.2585 150.93 91.1795L150.93 81.9805L149.41 81.9805C147.131 81.9805 145.81 81.5805 143.65 79.9005C141.89 78.5415 140.652 77.8615 139.011 77.8615C137.011 77.8615 135.732 78.9805 135.732 80.8205C135.732 82.9805 137.611 83.7405 139.412 84.6995C143.291 86.7405 145.57 87.9785 145.611 91.3385C145.65 95.0985 142.65 96.6975 138.652 96.6975C136.812 96.6975 135.011 96.3385 132.892 95.5785L133.732 93.2995C135.533 93.9385 137.011 94.2995 138.851 94.2995C141.251 94.2995 143.011 93.5395 142.97 91.3795C142.931 89.2995 140.97 88.4595 138.691 87.1805C135.652 85.4595 133.091 84.2605 133.091 81.0225C133.092 77.4225 135.733 75.5025 138.733 75.5025ZM168.291 79.3015C169.49 79.3015 170.49 79.6215 171.131 79.9425L170.051 82.2605C169.332 81.9405 168.612 81.7815 167.891 81.7815C165.692 81.7815 163.813 83.3815 163.813 86.6195L163.813 96.2585L161.172 96.2585L161.172 79.7415L163.213 79.7415L163.813 81.7825C164.813 80.2215 166.332 79.3015 168.291 79.3015ZM179.211 79.3015C183.131 79.3015 185.09 81.6605 185.09 85.2215L185.09 96.2585L183.051 96.2585L182.531 94.4595C181.451 95.6975 180.011 96.6975 177.812 96.6975C174.011 96.6975 172.412 94.4595 172.412 91.6195C172.412 87.5395 175.771 86.1405 182.451 86.1005L182.451 85.2215C182.451 82.5005 180.971 81.6215 178.89 81.6215C177.21 81.6215 175.771 82.1005 174.452 82.6605L173.571 80.5005C175.252 79.7825 176.692 79.3015 179.211 79.3015ZM182.452 88.1395C177.054 88.2195 175.054 88.9795 175.054 91.6195C175.054 93.6195 176.413 94.3795 177.972 94.3795C180.013 94.3795 182.452 93.3385 182.452 90.2195L182.452 88.1395ZM194.653 79.3015C196.612 79.3015 198.491 79.7405 200.092 80.5415L199.051 82.7405C197.971 82.2205 196.492 81.6215 194.692 81.6215C192.813 81.6215 191.772 82.4615 191.772 83.6995C191.772 85.3015 193.172 85.7405 195.452 86.8595C198.731 88.4595 200.292 89.7385 200.292 92.2575C200.292 95.2185 197.651 96.6965 194.372 96.6965C192.294 96.6965 190.493 96.1765 188.934 95.5775L189.774 93.3375C191.333 93.9375 192.893 94.3375 194.333 94.3375C196.731 94.3375 197.651 93.5385 197.651 92.2185C197.651 90.8985 197.051 90.2985 193.973 88.7795C191.172 87.3795 189.133 86.5805 189.133 83.7405C189.133 80.9015 191.772 79.3015 194.653 79.3015ZM207.172 72.5025L207.172 89.7385C207.172 92.5785 208.653 94.3795 211.131 94.3795C213.451 94.3795 214.93 93.1395 214.93 90.2995L214.93 85.6995C214.93 82.8595 213.571 81.5805 211.372 81.5805C210.532 81.5805 209.731 81.8205 209.212 82.0605L208.292 80.3005C209.292 79.7005 210.493 79.3005 211.731 79.3005C216.051 79.3005 217.571 82.3395 217.571 85.6985L217.571 90.2985C217.571 93.6575 215.651 96.6965 211.532 96.6965C209.573 96.6965 208.052 95.8565 207.093 94.5385L206.573 96.2575L204.534 96.2575L204.534 84.7023L204.534 72.5025L207.172 72.5025ZM228.651 79.3015C233.292 79.3015 235.251 82.1805 235.251 85.8605L235.251 90.1395C235.251 93.8195 233.292 96.6985 228.651 96.6985C224.012 96.6985 222.053 93.8195 222.053 90.1395L222.053 85.8605C222.053 82.1805 224.012 79.3015 228.651 79.3015ZM228.651 81.5815C226.172 81.5815 224.692 82.9405 224.692 85.8605L224.692 90.1395C224.692 93.0595 226.172 94.4185 228.651 94.4185C231.131 94.4185 232.612 93.0595 232.612 90.1395L232.612 85.8605C232.612 82.9405 231.131 81.5815 228.651 81.5815ZM252.971 79.7415L252.971 96.2595L250.93 96.2595L250.41 94.4995C249.41 95.8585 247.851 96.6985 245.851 96.6985C241.572 96.6985 239.931 93.6595 239.931 90.3005L239.931 79.7415L242.572 79.7415L242.572 90.3005C242.572 93.1405 244.051 94.3805 246.252 94.3805C248.852 94.3805 250.33 92.5795 250.33 89.7395L250.33 79.7415L252.971 79.7415ZM265.532 79.3015C266.731 79.3015 267.731 79.6215 268.372 79.9425L267.292 82.2605C266.571 81.9405 265.852 81.7815 265.132 81.7815C262.933 81.7815 261.054 83.3815 261.054 86.6195L261.054 96.2585L258.413 96.2585L258.413 79.7415L260.452 79.7415L261.054 81.7825C262.051 80.2215 263.573 79.3015 265.532 79.3015ZM276.248 79.3015C278.207 79.3015 279.726 80.1415 280.686 81.4615L281.208 79.7405L283.247 79.7405L283.247 96.4985C283.247 100.418 281.767 103.777 276.448 103.777C275.169 103.777 273.688 103.496 272.089 102.976L272.929 100.736C273.968 101.097 275.208 101.418 276.449 101.418C279.769 101.418 280.609 99.4985 280.609 96.4985L280.609 86.2605C280.609 83.4205 279.129 81.6215 276.648 81.6215C274.33 81.6215 272.849 82.8595 272.849 85.6995L272.849 90.2995C272.849 93.1395 274.329 94.4185 276.529 94.4185C277.369 94.4185 278.048 94.1785 278.568 93.9385L279.488 95.6985C278.568 96.3395 277.408 96.6985 276.17 96.6985C271.85 96.6985 270.211 93.6595 270.211 90.3005L270.211 85.7005C270.209 82.3405 272.129 79.3015 276.248 79.3015Z" fill="#ffffff" fill-rule="nonzero" opacity="1" stroke="#ffffff" stroke-linecap="butt" stroke-linejoin="round" stroke-width="1" vectornator:layerName="path"/>
</g>
</g>
</svg>
