<?xml version="1.0" encoding="UTF-8" standalone="no"?>
<!DOCTYPE svg PUBLIC "-//W3C//DTD SVG 1.1//EN" "http://www.w3.org/Graphics/SVG/1.1/DTD/svg11.dtd">
<!-- Created with Vectornator (http://vectornator.io/) -->
<svg height="100%" stroke-miterlimit="10" style="fill-rule:nonzero;clip-rule:evenodd;stroke-linecap:round;stroke-linejoin:round;" version="1.1" viewBox="0 0 150 92" width="100%" xml:space="preserve" xmlns="http://www.w3.org/2000/svg" xmlns:vectornator="http://vectornator.io" xmlns:xlink="http://www.w3.org/1999/xlink">
<defs/>
<g id="Untitled" vectornator:layerName="Untitled">
<g opacity="1" vectornator:layerName="g">
<path d="M22.3 46.6C11 46.6 1.8 37.4 1.8 26L1.8 1.7L10.9 1.7L10.9 26C10.9 32.3 16 37.4 22.3 37.4C28.6 37.4 33.7 32.3 33.7 26L33.7 1.7L42.8 1.7L42.8 26C42.8 37.4 33.6 46.6 22.3 46.6Z" fill="#ffffff" fill-rule="nonzero" opacity="1" stroke="none" vectornator:layerName="path"/>
<path d="M123.2 20L138.2 45.9L148.8 45.9L123.2 1.7L97.7 45.9L108.3 45.9L123.2 20Z" fill="#ffffff" fill-rule="nonzero" opacity="1" stroke="none" vectornator:layerName="polygon"/>
<path d="M73.5 46.6C69.2 46.6 64.9 45.4 61.1 42.9C50.5 36 47.5 21.8 54.4 11.3C61.3 0.7 75.4-2.3 86 4.6L81 12.3C74.7 8.2 66.2 10 62.1 16.3C58 22.6 59.8 31.1 66.1 35.2C72.4 39.3 80.9 37.5 85 31.2L92.7 36.2C88.2 42.9 80.9 46.6 73.5 46.6Z" fill="#ffffff" fill-rule="nonzero" opacity="1" stroke="none" vectornator:layerName="path"/>
<path d="M73.2 19.2L93.5 19.2L93.5 19.2L93.5 28.3L93.5 28.3L73.2 28.3L73.2 28.3L73.2 19.2L73.2 19.2Z" fill="#ffffff" fill-rule="nonzero" opacity="1" stroke="none" vectornator:layerName="rect"/>
<path d="M123.2 39.7L112.4 58.5L134.1 58.5L123.2 39.7Z" fill="#2cb67d" fill-rule="nonzero" opacity="1" stroke="none" vectornator:layerName="polygon"/>
<g opacity="1" vectornator:layerName="g">
<path d="M3.3 67.4C2.3 66.4 1.8 65.2 1.8 63.7L1.8 55.6L4.6 55.6L4.6 63.6C4.6 64.4 4.8 65 5.3 65.5C5.8 66 6.4 66.2 7.1 66.2C7.8 66.2 8.5 66 9 65.5C9.5 65 9.7 64.4 9.7 63.6L9.7 55.6L12.5 55.6L12.5 63.7C12.5 65.2 12 66.5 11 67.4C10 68.4 8.7 68.9 7.1 68.9C5.6 68.8 4.3 68.4 3.3 67.4Z" fill="#ffffff" fill-rule="nonzero" opacity="1" stroke="none" vectornator:layerName="path"/>
<path d="M23.8 59.4C24.5 60.2 24.8 61.2 24.8 62.5L24.8 68.6L22.1 68.6L22.1 62.9C22.1 61.4 21.5 60.6 20.4 60.6C19.9 60.6 19.5 60.7 19.2 60.9C18.9 61.1 18.6 61.4 18.4 61.8C18.2 62.2 18.1 62.7 18.1 63.2L18.1 68.5L15.4 68.5L15.4 58.5L17.3 58.5L17.8 59.7C18 59.5 18.2 59.3 18.4 59.1C18.6 58.9 18.9 58.8 19.2 58.6C19.5 58.5 19.8 58.4 20.1 58.3C20.4 58.2 20.7 58.2 21.1 58.2C22.2 58.3 23.1 58.7 23.8 59.4Z" fill="#ffffff" fill-rule="nonzero" opacity="1" stroke="none" vectornator:layerName="path"/>
<path d="M27.7 54.6L30.4 54.6L30.4 57.1L27.7 57.1L27.7 54.6ZM27.7 58.5L30.4 58.5L30.4 68.5L27.7 68.5L27.7 58.5Z" fill="#ffffff" fill-rule="nonzero" opacity="1" stroke="none" vectornator:layerName="path"/>
<path d="M42.8 58.5L38.8 68.5L36.3 68.5L32.2 58.5L35.1 58.5L37.6 65.2L40 58.5L42.8 58.5Z" fill="#ffffff" fill-rule="nonzero" opacity="1" stroke="none" vectornator:layerName="path"/>
<path d="M53.9 64.3L46.3 64.3C46.4 65 46.7 65.5 47.1 65.9C47.5 66.3 48.1 66.4 48.7 66.4C49.2 66.4 49.6 66.3 49.9 66.1C50.3 65.9 50.6 65.6 50.8 65.3L53.7 65.3C53.3 66.4 52.7 67.3 51.8 67.9C50.9 68.5 49.9 68.9 48.7 68.9C47.2 68.9 46 68.4 45 67.4C44 66.4 43.5 65.1 43.5 63.6C43.5 63 43.6 62.4 43.8 61.9C44 61.4 44.2 60.9 44.5 60.4C44.8 60 45.2 59.6 45.6 59.3C46 59 46.5 58.7 47 58.6C47.5 58.4 48.1 58.3 48.7 58.3C49.7 58.3 50.6 58.5 51.4 59C52.2 59.5 52.8 60.1 53.2 60.9C53.6 61.7 53.8 62.6 53.8 63.5C54 63.8 53.9 64 53.9 64.3ZM47.2 61C46.8 61.3 46.5 61.8 46.4 62.4L51.3 62.4C51.2 62 51 61.6 50.8 61.4C50.6 61.1 50.3 60.9 50 60.8C49.7 60.7 49.3 60.6 48.9 60.6C48.2 60.5 47.6 60.7 47.2 61Z" fill="#ffffff" fill-rule="nonzero" opacity="1" stroke="none" vectornator:layerName="path"/>
<path d="M62.3 58.5L62.3 61L61.1 61C60.3 61 59.8 61.2 59.5 61.5C59.2 61.9 59 62.4 59 63.3L59 68.5L56.3 68.5L56.3 58.5L58 58.5L58.5 59.7C59.2 58.8 60.1 58.4 61.4 58.4L62.3 58.4L62.3 58.5Z" fill="#ffffff" fill-rule="nonzero" opacity="1" stroke="none" vectornator:layerName="path"/>
<path d="M65.5 68.4C64.9 68.1 64.4 67.7 64 67.1C63.6 66.6 63.5 65.9 63.5 65.2L66.1 65.2C66.1 65.5 66.2 65.7 66.3 66C66.4 66.2 66.6 66.4 66.9 66.4C67.1 66.5 67.4 66.5 67.8 66.5C68.1 66.5 68.3 66.5 68.5 66.4C68.7 66.3 68.9 66.2 69 66.1C69.1 65.9 69.2 65.8 69.2 65.6C69.2 65.3 69 65.1 68.7 64.9C68.4 64.8 67.9 64.6 67.2 64.5C66.8 64.4 66.5 64.4 66.2 64.3C65.9 64.2 65.6 64.1 65.3 64C64.9 63.8 64.6 63.7 64.4 63.5C64.2 63.3 64 63 63.8 62.7C63.6 62.4 63.6 61.9 63.6 61.5C63.6 60.6 64 59.8 64.7 59.2C65.4 58.6 66.4 58.3 67.6 58.3C68.8 58.3 69.8 58.6 70.5 59.2C71.2 59.8 71.6 60.6 71.6 61.6L69 61.6C69 60.8 68.5 60.4 67.5 60.4C67.1 60.4 66.7 60.5 66.5 60.7C66.3 60.9 66.1 61.1 66.1 61.4C66.1 61.5 66.1 61.6 66.2 61.7C66.3 61.8 66.3 61.9 66.4 62C66.5 62.1 66.6 62.1 66.8 62.2C67 62.3 67.2 62.3 67.3 62.3L67.9 62.4C68.1 62.4 68.3 62.5 68.4 62.5C68.5 62.5 68.7 62.6 68.9 62.6C69.1 62.6 69.3 62.7 69.4 62.7C69.5 62.7 69.7 62.8 69.9 62.9C70.1 63 70.3 63.1 70.4 63.1C70.5 63.2 70.6 63.3 70.8 63.4C71 63.5 71.1 63.6 71.2 63.8C71.3 63.9 71.4 64.1 71.5 64.2C71.6 64.4 71.6 64.5 71.7 64.8C71.7 65 71.7 65.2 71.7 65.5C71.7 66.5 71.3 67.4 70.5 68C69.7 68.6 68.7 68.9 67.4 68.9C66.9 68.8 66.1 68.7 65.5 68.4Z" fill="#ffffff" fill-rule="nonzero" opacity="1" stroke="none" vectornator:layerName="path"/>
<path d="M74.3 54.6L77 54.6L77 57.1L74.3 57.1L74.3 54.6ZM74.3 58.5L77 58.5L77 68.5L74.3 68.5L74.3 58.5Z" fill="#ffffff" fill-rule="nonzero" opacity="1" stroke="none" vectornator:layerName="path"/>
<path d="M86.1 66.1L86.1 68.5L84.2 68.5C83.5 68.5 82.8 68.4 82.3 68.1C81.8 67.8 81.3 67.4 81.1 66.9C80.8 66.4 80.7 65.7 80.7 65L80.7 60.7L78.9 60.7L78.9 60.1L82.9 55.9L83.4 55.9L83.4 58.5L86 58.5L86 60.7L83.3 60.7L83.3 64.6C83.3 65.1 83.4 65.5 83.7 65.7C84 65.9 84.3 66.1 84.8 66.1L86.1 66.1Z" fill="#ffffff" fill-rule="nonzero" opacity="1" stroke="none" vectornator:layerName="path"/>
<path d="M97.9 64.3L90.3 64.3C90.4 65 90.7 65.5 91.1 65.9C91.5 66.3 92.1 66.4 92.7 66.4C93.2 66.4 93.6 66.3 93.9 66.1C94.3 65.9 94.6 65.6 94.8 65.3L97.7 65.3C97.3 66.4 96.7 67.3 95.8 67.9C94.9 68.5 93.9 68.9 92.7 68.9C91.2 68.9 90 68.4 89 67.4C88 66.4 87.5 65.1 87.5 63.6C87.5 63 87.6 62.4 87.8 61.9C88 61.4 88.2 60.9 88.5 60.4C88.8 60 89.2 59.6 89.6 59.3C90 59 90.5 58.7 91 58.6C91.5 58.4 92.1 58.3 92.7 58.3C93.7 58.3 94.6 58.5 95.4 59C96.2 59.5 96.8 60.1 97.2 60.9C97.6 61.7 97.8 62.6 97.8 63.5C98 63.8 98 64 97.9 64.3ZM91.3 61C90.9 61.3 90.6 61.8 90.5 62.4L95.4 62.4C95.3 62 95.1 61.6 94.9 61.4C94.7 61.1 94.4 60.9 94.1 60.8C93.8 60.7 93.4 60.6 93 60.6C92.2 60.5 91.7 60.7 91.3 61ZM93.6 57.4L91.6 57.4L92.6 54.6L95.5 54.6L93.6 57.4Z" fill="#ffffff" fill-rule="nonzero" opacity="1" stroke="none" vectornator:layerName="path"/>
<path d="M14.6 80.6C14.6 82.7 14 84.4 12.7 85.7C11.5 87 9.9 87.7 7.9 87.7C6 87.7 4.4 87.1 3.1 85.8C1.8 84.5 1.2 82.9 1.2 81C1.2 79 1.8 77.4 3.1 76.1C4.4 74.8 6 74.2 7.9 74.2C9.5 74.2 10.9 74.7 12.2 75.6C13.4 76.5 14.2 77.7 14.5 79.2L11.6 79.2C11.4 78.7 11.1 78.3 10.8 78C10.5 77.7 10 77.4 9.6 77.2C9.1 77 8.6 76.9 8.1 76.9C6.9 76.9 6 77.3 5.3 78.1C4.6 78.9 4.2 79.9 4.2 81.1C4.2 81.9 4.4 82.6 4.7 83.2C5 83.8 5.5 84.3 6.1 84.7C6.7 85 7.4 85.2 8.1 85.2C8.7 85.2 9.2 85.1 9.7 84.9C10.2 84.7 10.6 84.5 11 84.1C11.4 83.8 11.6 83.4 11.8 82.9L7.6 82.9L7.6 80.7L14.6 80.7L14.6 80.6Z" fill="#ffffff" fill-rule="nonzero" opacity="1" stroke="none" vectornator:layerName="path"/>
<path d="M22.9 77.3L22.9 79.9L21.7 79.9C20.9 79.9 20.4 80.1 20.1 80.4C19.8 80.8 19.6 81.3 19.6 82.2L19.6 87.4L16.9 87.4L16.9 77.4L18.6 77.4L19.1 78.6C19.8 77.7 20.7 77.3 22 77.3L22.9 77.3Z" fill="#ffffff" fill-rule="nonzero" opacity="1" stroke="none" vectornator:layerName="path"/>
<path d="M34.3 83.1L26.7 83.1C26.8 83.8 27.1 84.3 27.5 84.7C27.9 85.1 28.5 85.2 29.1 85.2C29.6 85.2 30 85.1 30.3 84.9C30.7 84.7 31 84.4 31.2 84.1L34.1 84.1C33.7 85.2 33.1 86.1 32.2 86.7C31.3 87.3 30.3 87.7 29.1 87.7C27.6 87.7 26.4 87.2 25.4 86.2C24.4 85.2 23.9 83.9 23.9 82.4C23.9 81.8 24 81.2 24.2 80.7C24.4 80.2 24.6 79.7 24.9 79.2C25.2 78.8 25.6 78.4 26 78.1C26.4 77.8 26.9 77.5 27.4 77.4C27.9 77.2 28.5 77.1 29.1 77.1C30.1 77.1 31 77.3 31.8 77.8C32.6 78.3 33.2 78.9 33.6 79.7C34 80.5 34.2 81.4 34.2 82.3C34.3 82.6 34.3 82.8 34.3 83.1ZM27.6 79.9C27.2 80.2 26.9 80.7 26.8 81.3L31.7 81.3C31.6 80.9 31.4 80.5 31.2 80.3C31 80 30.7 79.8 30.4 79.7C30.1 79.6 29.7 79.5 29.3 79.5C28.5 79.4 28 79.5 27.6 79.9Z" fill="#ffffff" fill-rule="nonzero" opacity="1" stroke="none" vectornator:layerName="path"/>
<path d="M45.1 78.2C45.8 79 46.1 80 46.1 81.3L46.1 87.4L43.4 87.4L43.4 81.7C43.4 80.2 42.8 79.4 41.7 79.4C41.2 79.4 40.8 79.5 40.5 79.7C40.2 79.9 39.9 80.2 39.7 80.6C39.5 81 39.4 81.5 39.4 82L39.4 87.3L36.7 87.3L36.7 77.3L38.6 77.3L39.1 78.5C39.3 78.3 39.5 78.1 39.7 77.9C39.9 77.7 40.2 77.6 40.5 77.4C40.8 77.3 41.1 77.2 41.4 77.1C41.7 77 42 77 42.4 77C43.5 77.1 44.4 77.5 45.1 78.2Z" fill="#ffffff" fill-rule="nonzero" opacity="1" stroke="none" vectornator:layerName="path"/>
<path d="M50.9 87C50.1 86.5 49.4 85.9 49 85.1C48.5 84.3 48.3 83.4 48.3 82.4C48.3 80.9 48.8 79.6 49.8 78.6C50.8 77.6 52.1 77.1 53.7 77.1C55.3 77.1 56.5 77.6 57.6 78.6C58.6 79.6 59.1 80.9 59.1 82.4C59.1 83.9 58.6 85.2 57.5 86.2C56.5 87.2 55.2 87.7 53.6 87.7C52.7 87.7 51.7 87.4 50.9 87ZM55.6 84.3C56.1 83.8 56.3 83.1 56.3 82.3C56.3 81.5 56.1 80.8 55.6 80.3C55.1 79.8 54.5 79.5 53.7 79.5C52.9 79.5 52.3 79.8 51.8 80.3C51.3 80.8 51.1 81.5 51.1 82.3C51.1 82.7 51.2 83.1 51.3 83.4C51.4 83.7 51.6 84 51.8 84.3C52 84.5 52.3 84.7 52.6 84.9C52.9 85.1 53.3 85.1 53.7 85.1C54.5 85.1 55.1 84.8 55.6 84.3Z" fill="#ffffff" fill-rule="nonzero" opacity="1" stroke="none" vectornator:layerName="path"/>
<path d="M70.7 78.6C71.7 79.6 72.2 80.9 72.2 82.4C72.2 83.9 71.7 85.2 70.7 86.2C69.7 87.2 68.4 87.7 66.9 87.7C65.7 87.7 64.6 87.3 63.8 86.6L63.5 87.4L61.5 87.4L61.5 73.7L64.2 73.7L64.2 77.9C65 77.4 65.9 77.1 67 77.1C68.4 77 69.7 77.6 70.7 78.6ZM68.6 84.3C69.1 83.8 69.4 83.1 69.4 82.3C69.4 81.8 69.3 81.3 69.1 80.9C68.9 80.5 68.5 80.1 68.1 79.9C67.7 79.7 67.2 79.5 66.7 79.5C66.2 79.5 65.7 79.6 65.3 79.9C64.9 80.1 64.5 80.5 64.3 80.9C64.1 81.3 63.9 81.8 63.9 82.3C63.9 83.1 64.2 83.7 64.7 84.3C65.2 84.8 65.9 85.1 66.7 85.1C67.5 85.1 68.1 84.8 68.6 84.3Z" fill="#ffffff" fill-rule="nonzero" opacity="1" stroke="none" vectornator:layerName="path"/>
<path d="M74.5 73.7L77.2 73.7L77.2 87.4L74.5 87.4L74.5 73.7Z" fill="#ffffff" fill-rule="nonzero" opacity="1" stroke="none" vectornator:layerName="path"/>
<path d="M89.9 83.1L82.3 83.1C82.4 83.8 82.7 84.3 83.1 84.7C83.5 85.1 84.1 85.2 84.7 85.2C85.2 85.2 85.6 85.1 85.9 84.9C86.3 84.7 86.6 84.4 86.8 84.1L89.7 84.1C89.3 85.2 88.7 86.1 87.8 86.7C86.9 87.3 85.9 87.7 84.7 87.7C83.2 87.7 82 87.2 81 86.2C80 85.2 79.5 83.9 79.5 82.4C79.5 81.8 79.6 81.2 79.8 80.7C80 80.2 80.2 79.7 80.5 79.2C80.8 78.7 81.2 78.4 81.6 78.1C82 77.8 82.5 77.5 83 77.4C83.5 77.3 84.1 77.1 84.7 77.1C85.7 77.1 86.6 77.3 87.4 77.8C88.2 78.3 88.8 78.9 89.2 79.7C89.6 80.5 89.8 81.4 89.8 82.3C89.9 82.6 89.9 82.8 89.9 83.1ZM83.2 79.9C82.8 80.2 82.5 80.7 82.4 81.3L87.3 81.3C87.2 80.9 87 80.5 86.8 80.3C86.6 80 86.3 79.8 86 79.7C85.7 79.6 85.3 79.5 84.9 79.5C84.1 79.4 83.6 79.5 83.2 79.9Z" fill="#ffffff" fill-rule="nonzero" opacity="1" stroke="none" vectornator:layerName="path"/>
<path d="M104.5 84.9L99.3 84.9L98.4 87.4L95.4 87.4L100.5 74.4L103.2 74.4L108.5 87.4L105.4 87.4L104.5 84.9ZM100.2 82.4L103.6 82.4L101.9 77.7L100.2 82.4Z" fill="#ffffff" fill-rule="nonzero" opacity="1" stroke="none" vectornator:layerName="path"/>
<path d="M110.3 73.7L113 73.7L113 87.4L110.3 87.4L110.3 73.7Z" fill="#ffffff" fill-rule="nonzero" opacity="1" stroke="none" vectornator:layerName="path"/>
<path d="M125.3 78.6C126.3 79.6 126.8 80.9 126.8 82.4C126.8 83.9 126.3 85.2 125.3 86.2C124.3 87.2 123 87.7 121.5 87.7C120.5 87.7 119.5 87.4 118.7 86.9L118.7 91L116 91L116 77.3L117.8 77.3L118.3 78.2C119.2 77.4 120.3 77 121.5 77C123 77 124.3 77.6 125.3 78.6ZM123.2 84.3C123.7 83.8 124 83.1 124 82.3C124 81.8 123.9 81.3 123.6 80.9C123.4 80.5 123 80.1 122.6 79.9C122.2 79.7 121.7 79.5 121.2 79.5C120.7 79.5 120.2 79.6 119.8 79.9C119.4 80.1 119.1 80.5 118.8 80.9C118.6 81.3 118.5 81.8 118.5 82.3C118.5 83.1 118.8 83.8 119.3 84.3C119.8 84.8 120.5 85.1 121.3 85.1C122 85.1 122.7 84.8 123.2 84.3Z" fill="#ffffff" fill-rule="nonzero" opacity="1" stroke="none" vectornator:layerName="path"/>
<path d="M138.8 83.1L131.2 83.1C131.3 83.8 131.6 84.3 132 84.7C132.4 85.1 133 85.2 133.6 85.2C134.1 85.2 134.5 85.1 134.8 84.9C135.2 84.7 135.5 84.4 135.7 84.1L138.6 84.1C138.2 85.2 137.6 86.1 136.7 86.7C135.8 87.3 134.8 87.7 133.6 87.7C132.1 87.7 130.9 87.2 129.9 86.2C128.9 85.2 128.4 83.9 128.4 82.4C128.4 81.8 128.5 81.2 128.7 80.7C128.9 80.2 129.1 79.7 129.4 79.2C129.7 78.8 130.1 78.4 130.5 78.1C130.9 77.8 131.4 77.5 131.9 77.4C132.4 77.2 133 77.1 133.6 77.1C134.6 77.1 135.5 77.3 136.3 77.8C137.1 78.3 137.7 78.9 138.1 79.7C138.5 80.5 138.7 81.4 138.7 82.3C138.8 82.6 138.8 82.8 138.8 83.1ZM132.1 79.9C131.7 80.2 131.4 80.7 131.3 81.3L136.2 81.3C136.1 80.9 135.9 80.5 135.7 80.3C135.5 80 135.2 79.8 134.9 79.7C134.6 79.6 134.2 79.5 133.8 79.5C133 79.4 132.5 79.5 132.1 79.9Z" fill="#ffffff" fill-rule="nonzero" opacity="1" stroke="none" vectornator:layerName="path"/>
<path d="M142.5 87.2C141.9 86.9 141.4 86.5 141 85.9C140.6 85.4 140.5 84.7 140.5 84L143.1 84C143.1 84.3 143.2 84.5 143.3 84.8C143.4 85 143.6 85.2 143.9 85.2C144.1 85.3 144.4 85.3 144.8 85.3C145.1 85.3 145.3 85.3 145.5 85.2C145.7 85.1 145.9 85 146 84.9C146.1 84.7 146.2 84.6 146.2 84.4C146.2 84.1 146 83.9 145.7 83.7C145.4 83.6 144.9 83.4 144.2 83.3C143.8 83.2 143.5 83.2 143.2 83.1C142.9 83 142.6 82.9 142.3 82.8C141.9 82.6 141.6 82.5 141.4 82.3C141.2 82.1 141 81.8 140.8 81.5C140.6 81.2 140.6 80.7 140.6 80.3C140.6 79.4 141 78.6 141.7 78C142.4 77.4 143.4 77.1 144.6 77.1C145.8 77.1 146.8 77.4 147.5 78C148.2 78.6 148.6 79.4 148.6 80.4L146 80.4C146 79.6 145.5 79.2 144.5 79.2C144.1 79.2 143.7 79.3 143.5 79.5C143.3 79.7 143.1 79.9 143.1 80.2C143.1 80.3 143.1 80.4 143.2 80.5C143.3 80.6 143.3 80.7 143.4 80.8C143.5 80.9 143.6 80.9 143.8 81C144 81.1 144.2 81.1 144.3 81.1L144.9 81.2C145.1 81.2 145.3 81.3 145.4 81.3C145.5 81.3 145.7 81.4 145.9 81.4C146.1 81.4 146.3 81.5 146.4 81.5C146.5 81.5 146.7 81.6 146.9 81.7C147.1 81.8 147.3 81.9 147.4 81.9C147.5 82 147.6 82.1 147.8 82.2C148 82.3 148.1 82.4 148.2 82.6C148.3 82.7 148.4 82.9 148.5 83C148.6 83.2 148.6 83.3 148.7 83.6C148.7 83.8 148.7 84 148.7 84.3C148.7 85.3 148.3 86.2 147.5 86.8C146.7 87.4 145.7 87.7 144.4 87.7C143.9 87.7 143.1 87.5 142.5 87.2Z" fill="#ffffff" fill-rule="nonzero" opacity="1" stroke="none" vectornator:layerName="path"/>
</g>
</g>
</g>
</svg>
